TITLE ""
FILE "Disc2Track62.mp3" MP3
  TRACK 01 AUDIO
    TITLE "Disc2Track62_01"
    INDEX 01 00:00:00
  TRACK 02 AUDIO
    TITLE "Disc2Track62_02"
    INDEX 01 00:00:73
  TRACK 03 AUDIO
    TITLE "Disc2Track62_03"
    INDEX 01 00:02:56
  TRACK 04 AUDIO
    TITLE "Disc2Track62_04"
    INDEX 01 00:03:65
  TRACK 05 AUDIO
    TITLE "Disc2Track62_05"
    INDEX 01 00:07:12
  TRACK 06 AUDIO
    TITLE "Disc2Track62_06"
    INDEX 01 00:07:46
  TRACK 07 AUDIO
    TITLE "Disc2Track62_07"
    INDEX 01 00:08:67
  TRACK 08 AUDIO
    TITLE "Disc2Track62_08"
    INDEX 01 00:10:07
  TRACK 09 AUDIO
    TITLE "Disc2Track62_09"
    INDEX 01 00:11:32
  TRACK 10 AUDIO
    TITLE "Disc2Track62_10"
    INDEX 01 00:11:67
  TRACK 11 AUDIO
    TITLE "Disc2Track62_11"
    INDEX 01 00:13:15
  TRACK 12 AUDIO
    TITLE "Disc2Track62_12"
    INDEX 01 00:14:34
  TRACK 13 AUDIO
    TITLE "Disc2Track62_13"
    INDEX 01 00:15:55
  TRACK 14 AUDIO
    TITLE "Disc2Track62_14"
    INDEX 01 00:21:65
  TRACK 15 AUDIO
    TITLE "Disc2Track62_15"
    INDEX 01 00:22:22
  TRACK 16 AUDIO
    TITLE "Disc2Track62_16"
    INDEX 01 00:23:29
  TRACK 17 AUDIO
    TITLE "Disc2Track62_17"
    INDEX 01 00:24:36
  TRACK 18 AUDIO
    TITLE "Disc2Track62_18"
    INDEX 01 00:25:46
  TRACK 19 AUDIO
    TITLE "Disc2Track62_19"
    INDEX 01 00:29:65
  TRACK 20 AUDIO
    TITLE "Disc2Track62_20"
    INDEX 01 00:30:19
  TRACK 21 AUDIO
    TITLE "Disc2Track62_21"
    INDEX 01 00:31:60
  TRACK 22 AUDIO
    TITLE "Disc2Track62_22"
    INDEX 01 00:32:59
  TRACK 23 AUDIO
    TITLE "Disc2Track62_23"
    INDEX 01 00:34:21
  TRACK 24 AUDIO
    TITLE "Disc2Track62_24"
    INDEX 01 00:39:14
  TRACK 25 AUDIO
    TITLE "Disc2Track62_25"
    INDEX 01 00:39:46
  TRACK 26 AUDIO
    TITLE "Disc2Track62_26"
    INDEX 01 00:41:03
  TRACK 27 AUDIO
    TITLE "Disc2Track62_27"
    INDEX 01 00:42:15
  TRACK 28 AUDIO
    TITLE "Disc2Track62_28"
    INDEX 01 00:43:43
  TRACK 29 AUDIO
    TITLE "Disc2Track62_29"
    INDEX 01 00:48:39
  TRACK 30 AUDIO
    TITLE "Disc2Track62_30"
    INDEX 01 00:48:72
  TRACK 31 AUDIO
    TITLE "Disc2Track62_31"
    INDEX 01 00:50:32
  TRACK 32 AUDIO
    TITLE "Disc2Track62_32"
    INDEX 01 00:51:63
  TRACK 33 AUDIO
    TITLE "Disc2Track62_33"
    INDEX 01 00:53:20
  TRACK 34 AUDIO
    TITLE "Disc2Track62_34"
    INDEX 01 00:55:52
  TRACK 35 AUDIO
    TITLE "Disc2Track62_35"
    INDEX 01 00:56:09
  TRACK 36 AUDIO
    TITLE "Disc2Track62_36"
    INDEX 01 00:57:24
  TRACK 37 AUDIO
    TITLE "Disc2Track62_37"
    INDEX 01 00:59:48
  TRACK 38 AUDIO
    TITLE "Disc2Track62_38"
    INDEX 01 01:00:63
  TRACK 39 AUDIO
    TITLE "Disc2Track62_39"
    INDEX 01 01:04:32
  TRACK 40 AUDIO
    TITLE "Disc2Track62_40"
    INDEX 01 01:04:61
  TRACK 41 AUDIO
    TITLE "Disc2Track62_41"
    INDEX 01 01:06:09
  TRACK 42 AUDIO
    TITLE "Disc2Track62_42"
    INDEX 01 01:07:64
  TRACK 43 AUDIO
    TITLE "Disc2Track62_43"
    INDEX 01 01:09:06
  TRACK 44 AUDIO
    TITLE "Disc2Track62_44"
    INDEX 01 01:11:06
  TRACK 45 AUDIO
    TITLE "Disc2Track62_45"
    INDEX 01 01:11:38
  TRACK 46 AUDIO
    TITLE "Disc2Track62_46"
    INDEX 01 01:12:61
  TRACK 47 AUDIO
    TITLE "Disc2Track62_47"
    INDEX 01 01:14:15
  TRACK 48 AUDIO
    TITLE "Disc2Track62_48"
    INDEX 01 01:15:34
  TRACK 49 AUDIO
    TITLE "Disc2Track62_49"
    INDEX 01 01:17:29
  TRACK 50 AUDIO
    TITLE "Disc2Track62_50"
    INDEX 01 01:17:64
  TRACK 51 AUDIO
    TITLE "Disc2Track62_51"
    INDEX 01 01:19:27
  TRACK 52 AUDIO
    TITLE "Disc2Track62_52"
    INDEX 01 01:20:33
  TRACK 53 AUDIO
    TITLE "Disc2Track62_53"
    INDEX 01 01:21:70
  TRACK 54 AUDIO
    TITLE "Disc2Track62_54"
    INDEX 01 01:26:69
  TRACK 55 AUDIO
    TITLE "Disc2Track62_55"
    INDEX 01 01:27:25
  TRACK 56 AUDIO
    TITLE "Disc2Track62_56"
    INDEX 01 01:28:56
  TRACK 57 AUDIO
    TITLE "Disc2Track62_57"
    INDEX 01 01:30:06
  TRACK 58 AUDIO
    TITLE "Disc2Track62_58"
    INDEX 01 01:31:39
  TRACK 59 AUDIO
    TITLE "Disc2Track62_59"
    INDEX 01 01:31:72
  TRACK 60 AUDIO
    TITLE "Disc2Track62_60"
    INDEX 01 01:33:26
  TRACK 61 AUDIO
    TITLE "Disc2Track62_61"
    INDEX 01 01:34:56
  TRACK 62 AUDIO
    TITLE "Disc2Track62_62"
    INDEX 01 01:36:10
  TRACK 63 AUDIO
    TITLE "Disc2Track62_63"
    INDEX 01 01:40:53
  TRACK 64 AUDIO
    TITLE "Disc2Track62_64"
    INDEX 01 01:41:10
  TRACK 65 AUDIO
    TITLE "Disc2Track62_65"
    INDEX 01 01:42:42
  TRACK 66 AUDIO
    TITLE "Disc2Track62_66"
    INDEX 01 01:43:46
  TRACK 67 AUDIO
    TITLE "Disc2Track62_67"
    INDEX 01 01:45:03
  TRACK 68 AUDIO
    TITLE "Disc2Track62_68"
    INDEX 01 01:45:37
  TRACK 69 AUDIO
    TITLE "Disc2Track62_69"
    INDEX 01 01:46:64
  TRACK 70 AUDIO
    TITLE "Disc2Track62_70"
    INDEX 01 01:48:08
  TRACK 71 AUDIO
    TITLE "Disc2Track62_71"
    INDEX 01 01:49:36
  TRACK 72 AUDIO
    TITLE "Disc2Track62_72"
    INDEX 01 01:50:01
  TRACK 73 AUDIO
    TITLE "Disc2Track62_73"
    INDEX 01 01:51:22
  TRACK 74 AUDIO
    TITLE "Disc2Track62_74"
    INDEX 01 01:53:09
  TRACK 75 AUDIO
    TITLE "Disc2Track62_75"
    INDEX 01 01:54:28
  TRACK 76 AUDIO
    TITLE "Disc2Track62_76"
    INDEX 01 02:00:21
  TRACK 77 AUDIO
    TITLE "Disc2Track62_77"
    INDEX 01 02:00:52
  TRACK 78 AUDIO
    TITLE "Disc2Track62_78"
    INDEX 01 02:02:02
  TRACK 79 AUDIO
    TITLE "Disc2Track62_79"
    INDEX 01 02:03:11
  TRACK 80 AUDIO
    TITLE "Disc2Track62_80"
    INDEX 01 02:04:34
  TRACK 81 AUDIO
    TITLE "Disc2Track62_81"
    INDEX 01 02:06:45
